<svg xmlns="http://www.w3.org/2000/svg" viewBox="0 0 1200 630">
  <!-- Background -->
  <rect width="1200" height="630" fill="#0f172a"/>

  <!-- Gradient overlay -->
  <defs>
    <linearGradient id="grad" x1="0%" y1="0%" x2="100%" y2="100%">
      <stop offset="0%" style="stop-color:#1e293b;stop-opacity:1" />
      <stop offset="100%" style="stop-color:#0f172a;stop-opacity:1" />
    </linearGradient>
  </defs>
  <rect width="1200" height="630" fill="url(#grad)"/>

  <!-- Megaphone icon -->
  <g transform="translate(100, 200) scale(4)">
    <path d="M19.5 13.5L21 12M22.5 8.5L21 9.5M22.5 18.5L21 17.5" stroke="#3b82f6" stroke-width="2" stroke-linecap="round" stroke-linejoin="round"/>
    <path d="M2 11.5V15.5C2 16.0523 2.44772 16.5 3 16.5H5.5L10.5 20.5V7.5L5.5 11.5H3C2.44772 11.5 2 11.9477 2 12.5" stroke="#f8fafc" stroke-width="2" stroke-linecap="round" stroke-linejoin="round"/>
    <path d="M15.5 8.5C16.5 9.5 17 11 17 13.5C17 16 16.5 17.5 15.5 18.5" stroke="#3b82f6" stroke-width="2" stroke-linecap="round" stroke-linejoin="round"/>
  </g>

  <!-- Title -->
  <text x="280" y="280" font-family="system-ui, -apple-system, sans-serif" font-size="72" font-weight="bold" fill="#f8fafc">ATX Protests</text>

  <!-- Subtitle -->
  <text x="280" y="360" font-family="system-ui, -apple-system, sans-serif" font-size="36" fill="#94a3b8">Austin Protests &amp; Rallies</text>

  <!-- Tagline -->
  <text x="280" y="420" font-family="system-ui, -apple-system, sans-serif" font-size="28" fill="#64748b">Find upcoming events • Know your rights • Stay safe</text>

  <!-- URL -->
  <text x="280" y="540" font-family="system-ui, -apple-system, sans-serif" font-size="24" fill="#3b82f6">atxprotests.com</text>
</svg>
